<svg id="Vrstva_1" data-name="Vrstva 1" xmlns="http://www.w3.org/2000/svg" viewBox="0 0 1388.84 1893.03"><defs><style>.cls-1,.cls-4,.cls-5,.cls-6{fill:#1d1d1b;}.cls-1,.cls-2,.cls-3,.cls-4,.cls-5{stroke:#1d1d1b;}.cls-1,.cls-2,.cls-3,.cls-4{stroke-miterlimit:10;}.cls-1,.cls-5{stroke-width:0.5px;}.cls-2,.cls-3{fill:none;stroke-width:11px;}.cls-2,.cls-3,.cls-5,.cls-6{stroke-linecap:round;}.cls-3{stroke-dasharray:74 47.64;}.cls-4{stroke-width:0.25px;}.cls-5,.cls-6{stroke-linejoin:round;}.cls-5{stroke-dasharray:11 14;}.cls-6{stroke:#fff;stroke-width:4px;stroke-dasharray:35 12;}</style></defs><title>logo</title><path class="cls-1" d="M1057.66,449.14V350.37H996.11v98.77H905v61.93h91.09V709.64a228.45,228.45,0,0,1-73-79.8,234.47,234.47,0,0,1-26.92-83.63,78.52,78.52,0,0,0-15.6,27.16c-5.38,16.63-5.64,38-5.64,38h0a146,146,0,0,1-33.28-44.85c-5.11-10.73-19.57-42.16-12.84-80.7,1.42-8.14,3.27-13.5,7-24.23,11.86-34.4,25.46-51.6,37.33-73.86,8.32-15.63,18.43-38.7,25.05-70.12l41.88,82.7L944,408a141.21,141.21,0,0,1,.83-39.75c3.18-19.34,9.83-34,16.92-47.34,22.61-42.46,40.23-51.05,56.25-80.09,9.44-17.12,20.87-43.84,25.26-82.27A336.89,336.89,0,0,1,1084.7,233c25.45,63.59,26,121.29,23.56,155.2A462.71,462.71,0,0,1,1136,341.5c6.93-10.27,13.9-19.7,20.74-28.32A225.55,225.55,0,0,0,1176,376.64c9,18.77,16,26.34,26.83,47.41a301.41,301.41,0,0,1,22.28,57c5.64,46.23-6.22,78.47-19.49,99.16a117.16,117.16,0,0,1-28,29.81,102.17,102.17,0,0,0-4.56-33.6,100.67,100.67,0,0,0-14.85-29.52c-1.08,6.06-2.74,14.22-5.31,23.71a271,271,0,0,1-28.09,67,252.42,252.42,0,0,1-67.14,73.52V511.07h91.75V449.14ZM854.09,224.81c5.44,23.32,10,57.74,0,95.53-11.21,42.52-31,52.46-49.6,94.75-7.9,18-35.84,81.63-15.69,144.59,20.41,63.78,82.35,102.47,113.73,122.06,17,10.63,24.79,13.16,45.05,27.38a395,395,0,0,1,78.56,73.19,409.61,409.61,0,0,1,70-66c43.49-32.17,63.7-33.34,100.78-66,22-19.41,45.49-40.09,60.15-74.64,27.11-63.89,4.82-129.71-.67-145.93-18.79-55.48-43.87-61-56.24-112.65-9.45-39.45-4.1-74.89,1.77-98.39l-62.17,49.48h0a307.83,307.83,0,0,0-43-108.57,298.45,298.45,0,0,0-88-89,274.42,274.42,0,0,1-6.13,79.41,271,271,0,0,1-16.43,49.55l-26.88-36.5a207.36,207.36,0,0,1-6.72,79.64,203,203,0,0,1-21.81,49.67,275.12,275.12,0,0,0-76.65-67.56Z" transform="translate(-358.03 -70.11)"/><path class="cls-1" d="M1040.43,1730.71c-31.6.47-33.47-36.57-129.55-144.92-59.91-67.58-112.6-113.41-124.25-123.45-36.66-31.59-58.14-48.16-58.14-48.16-43.07-33.88-61.12-43.73-103.33-84.65-56.77-55-96.28-93.1-127.69-155.75-18.76-37.41-79.48-158.51-29.75-281.2,28-69.11,79-109,93.24-119.85a275.92,275.92,0,0,1,67.88-38.65,259.91,259.91,0,0,1,40.67-12.17c91.78-18.48,177.26,37.5,193.32,48,14,9.14,22.79,16.48,40.43,31.18a890.63,890.63,0,0,1,118.66,119.35c62.61-85.26,124.29-129.55,158.8-150.77,33.37-20.53,57.67-29.6,73.69-34.48,24.8-7.57,67-21.76,119.46-10.57a264.32,264.32,0,0,1,108.56,50.82c57.15,45.13,79,101.24,86,119.85,46.85,124.84-13.14,247.74-29.5,281.2-26.83,54.89-82.64,108.91-193.16,214.71-20.43,19.56-45.72,38.75-80.13,74-21.26,21.81-49.23,52.41-101,119.18C1070.2,1706.37,1065.8,1730.33,1040.43,1730.71Zm331-275.42c7-5.24,37.71-27.9,79.09-60.57,12.78-10.08,26-20.76,43.35-35,12.06-9.92,221.37-187,193.33-411.62-3.68-29.44-21.28-138.53-113-217.38-18.76-16.12-72.43-58.33-152.68-71.46-88.2-14.43-159.5,14.29-184.6,24.75l-.87.37s-2.07.87-4.15,1.79l-.63.28c-43.58,18.92-89.83,59.42-89.83,59.42-56,49.11-106.81,121.22-113.49,130.78-41.66-61.33-80.55-104.47-116.84-130.78h0c-.21-.18-50-42.21-95.15-62.26q-2.7-1.19-4.54-2l-.87-.36c-27.34-11.4-95.66-38-184.6-24.75-26.4,3.92-93.38,14.71-154.66,65.41-95.92,79.37-108.49,199.13-111,223.42-20.54,195.8,129.34,359,193.33,411.62,43.37,35.67,30.43,19,122.44,95.61,145.12,120.74,215.22,184.12,265.66,252.22,45.53,61.48,57.71,96,89.55,97,33,1.1,49.61-34.88,104.43-106C1227.32,1576.83,1326,1489.15,1371.39,1455.29Z" transform="translate(-358.03 -70.11)"/><path class="cls-2" d="M1077.44,1812.56q10.57-15.43,20.93-29.91" transform="translate(-358.03 -70.11)"/><path class="cls-3" d="M1126.58,1744.27c23.92-31.65,46.24-59,65.86-82,31.9-37.36,69.6-81.22,125.58-131.5,38.93-35,63-51.75,98.48-79.17,41.62-32.16,143-110.53,197.62-172.43,25.55-29,162.51-184.19,118.64-372.37C1694.48,742.57,1543.65,661.32,1474,639.1c-90.2-28.78-188-4.42-188.26-4.32l-.36.14-.62.24-.17.07c-52.4,20.7-91.9,45.36-115.95,60.9h0c-31.24,20.18-63.12,48.65-95.65,85.9" transform="translate(-358.03 -70.11)"/><path class="cls-2" d="M1057.63,800.22q-11.19,13.69-22.49,28.75" transform="translate(-358.03 -70.11)"/><path class="cls-4" d="M1082,1207c-6.39,15.41-18.69,33.85-23.76,32.07-5.22-1.83-3.22-25.23,6.52-44.12,6.56-12.73,18.21-26.44,22.63-24.54C1092.18,1172.46,1088,1192.46,1082,1207Zm-12-48.64c-23.43,8-53.83,67.05-34.18,87.39,7,7.27,17.87,6.92,18.59,6.88,13.47-.63,26.09-12.71,31.92-30.85-2.75,11.53,1.6,23,10.5,28.27,10.68,6.39,23.23,1.16,25.33.29,2-.81,7.4-3.32,14.27-11.64,12-14.53,17.51-33.71,14.36-35.28-5.13-2.58-30.19,43.36-39.57,39.6-5.35-2.14-3.15-19.43-1.2-34.72,3.59-28.22,11.15-42.74,4.2-48.08-3-2.27-8.21-2.61-11.92-.64-5.31,2.81-5.87,9.48-5.92,10.26-.78-2.18-3.64-9.32-10.79-12.2C1079.19,1155.06,1072.87,1157.37,1070,1158.35Z" transform="translate(-358.03 -70.11)"/><path class="cls-4" d="M800,1330.25c.08-16.09,39.78-79.78,104.31-93.85,5.86-1.27,48.12-10,62.43,8,3.35,4.22,4.49,9.06,5.19,12,3.9,16.5-4.31,30.83-10,40.42-14.65,24.77-37.33,38.86-50.44,45.64a343.93,343.93,0,0,1,10-48.76c2.73-9.65,6.31-20.57.34-27.1a16.12,16.12,0,0,0-12-4.82c-14.16,1.06-22,32.73-35.68,90.32-20,84.16-27.75,119.24-13,128.37a9.92,9.92,0,0,0,6.29,1.79c11.08-1.13,16.11-25.75,24.6-63.57,3.4-15.16,8.6-38,15.37-66.27a29.64,29.64,0,0,0,14.07,5.46c9.7,1,18.79-3.52,29.85-9,8-3.94,8.94-5.35,12.7-5.46,9.87-.28,17.45,9.08,19.21,11.25,6.92,8.53,12,23.13,6.87,35.35-7.73,18.44-30.16,12.81-62.11,37.28-11.78,9-28.72,22.38-29.51,41.79-.1,2.56-.73,18,9.61,25.71,19.73,14.72,66.6-8.17,92.3-33.43,7.56-7.43,21.91-21.9,26.76-45a77.35,77.35,0,0,0,0-31.5l17.16-6.11a60.31,60.31,0,0,0-1.72,27.64c1.46,8.31,3.91,22.32,16.47,30.54,1.09.7,12.94,8.21,27.11,5.46,28.74-5.58,38.63-47.84,40.15-54.32a94.8,94.8,0,0,0,2.4-25.39l23.67-9.32c-6.88,35.69-5.2,62.84,1.55,69.59a25.61,25.61,0,0,0,11.49,6.91,19.23,19.23,0,0,0,6,0c10-2,10.67-31.82,19-55.91,10.39-29.91,32.64-51,36.37-49.17,2.69,1.32-3.7,12.08-7.1,36.37-2.83,20.2-4.53,33.78,3.67,46.27,2.3,3.49,11.14,15.82,25.39,17.31s24.62-8.78,39.46-23.46c0,0,17.65-17.45,16.13-30.53-.12-1-.47-4.07-2.06-4.5-1.94-.53-4.63,3.09-6.18,5.15-3.27,4.36-8,10.5-14.75,18.63-19.11,20.91-26,21.2-28.82,19.93-2.34-1.07-4.88-4.69-2.06-36.64,3-34.57,7.39-45.75-.69-55-7.2-8.22-18.83-8.66-19.63-8.68-18.34-.45-38.35,20-45.22,51.59a81.74,81.74,0,0,1,4.46-32.3c4.14-11.59,8.67-15.63,19.56-32.14,14.74-22.36,22.11-33.54,24.71-48.21,2.45-13.9,1.94-36.22-8.93-40.5-11.08-4.36-27.94,12-30.65,14.61C1167.92,1248.12,1164,1290,1163,1301c-1.12,12.52-.76,24.67-10,36.66-6.49,8.48-17,15.95-22,13.5s.61-11.88-4.8-21.21c-6.85-11.81-28.75-20.46-40.84-11.89-10.07,7.14-9.53,23.57-3.77,33.75a32.89,32.89,0,0,0,20.72,15.42c7.53,1.65,11.73-.75,14.28,1.93s1.41,9-6.86,23.46c-9.58,16.71-21.74,37.94-29,35.84s-7.51-27.85-5.66-43.23c1.91-15.81,6.51-25.75.17-32.3-3.58-3.7-9.34-5-14-4.3-7.6,1.08-14,7.56-15.72,16.35l-19.9,11.57c-.74-9.25-3.47-22.9-14.41-31.49-14-11-32.08-6.44-35-14.15-2.86-7.55,13.48-14.39,22.65-30.53,11.3-19.9,7.62-48.84-5.49-64.28-25.51-30-93.94-17.41-134.77,6.43-52.06,30.4-78.18,90.12-70.08,97.38,1.23,1.11,5,2.51,7.55,1.29C800.27,1339.27,800,1331.73,800,1330.25Zm162.3,135.31c-6,5.49-23.22,21.32-38.77,16.71-1.76-.52-7.06-2.09-9.27-6.42-6.47-12.72,20.52-35.66,28.48-42.43a160.82,160.82,0,0,1,46.15-27.16C987.91,1419.28,983.72,1445.88,962.28,1465.56ZM1193.89,1300c4.87-37.88,12.55-78.82,24.2-79.25a7.18,7.18,0,0,1,5,2.28C1236.62,1236.13,1202.11,1288,1193.89,1300Zm-79.26,35.68c5.63,8.21,2.38,17.76,1.72,19.6-8.36.08-15.6-3.9-18.19-10-2.83-6.63-.13-15.78,4.8-17C1107.33,1327.21,1112.44,1332.52,1114.63,1335.72Z" transform="translate(-358.03 -70.11)"/><path class="cls-4" d="M857.18,933.64c-25.87-2.19-66.64,50.64-83.23,106.86,0,0-15.07,51.06,2.87,90,6.2,13.43,13.54,18.89,19.61,21.73,13.23,6.17,27.19,3,32.06,1.73,19.34-7.84,32-17,39.85-23.7,8.26-7.07,16.45-16,23.08-23.19,5.64-6.14,10.14-11.39,13.27-15.13a60.14,60.14,0,0,1,4.45-18.27,64.19,64.19,0,0,1,10.72-17.25c.89-1,7.66-8.61,13.2-7.13,3.41.91,5.28,4.94,6.67,12.27,5.16,27.29-7.32,43.18,2.88,58.65,3.34,5.07,6.1,5.53,6.8,5.61,10.16,1.22,21.23-23.75,22.75-27.17,3-6.84,3.86-11.32,5.49-20,1.68-9,1-10.79,0-11.92-4.06-4.79-13,.6-23.14-3.39-9.47-3.71-16.72-14.28-15.56-24.42.15-1.3,1.39-10.72,10.2-15.65a23.11,23.11,0,0,1,11-2.81c5.88,0,10.07,2.17,13.07,3.74,3.48,1.82,8.36,4.38,11,9.35,2.27,4.29.76,6.44,3.67,13.08,1.61,3.71,2.34,5.59,3.66,6.08,6.42,2.37,21.14-15.8,27.45-23.6,10.43-12.88,13-19.09,15.43-18.46,3.39.87,4.43,14.48-2,25.35-5.17,8.8-14.23,14.15-18.17,16.48-9.72,5.73-16,6-20.27,12.73-.59.93-1.31,2.25-3,9.93-3.09,14-2,16.4-4.18,23.84a77.61,77.61,0,0,1-9.94,21c-3.47,5.18-6.75,9.92-13.07,14.49-4.22,3-8.5,6.14-14.64,7-13.55,1.91-24.88-8.6-26.15-9.82-10.86-10.35-7.93-21.38-13.6-22.43s-10.07,10.31-25.63,26.17c-6.66,6.79-16.27,16.44-30.85,23.84a94.55,94.55,0,0,1-40.8,10.75c-23.22.55-42.79-8.33-53.34-15.89-40.59-29.09-31.38-98.54-14.64-138.81C763,970,799.07,942.84,820,929.73a63.92,63.92,0,0,1,28.24-9.81c7.46-.73,24.53-2.39,36.09,7.94,10.71,9.59,9.77,23.31,9.41,28.51-1.08,15.7-11.2,29.89-14.64,29-1.93-.51-2.87-6,.52-26.17.47-2.94,1.42-11.67-4.71-18.23C874.88,941,869,934.64,857.18,933.64Zm106.61,104.52c-2.93,1-4.25,6-2.62,9.35,3,6.24,15.66,5.66,17.26,2.8C980.32,1046.93,969.06,1036.31,963.79,1038.16Z" transform="translate(-358.03 -70.11)"/><path class="cls-4" d="M1225.86,1143.4c-4.15,15.24-7.1,24.68-16.27,33.66-1.91,1.87-16,15.71-26.95,12-6.25-2.11-8.6-9-9.28-11-1.06-3.1-4.69-15.81,14.73-41.35,8.31-10.93,23.61-27.84,50.05-43.26C1233.92,1112.67,1229.66,1129.46,1225.86,1143.4Zm13.55-66.9a51.7,51.7,0,0,1-14.19,14.9c-15.62,11.54-75.09,63.86-63.15,93,3.49,8.5,12.87,14.64,21.69,16.41,22.2,4.47,51.9-16.47,70.8-55.16a179.7,179.7,0,0,0,12.72-37.55c5.54-25.31,1-31.48,9.29-43.91s15.92-11,32.33-30.48c7.48-8.87,15.36-20.38,13.64-21.64-1.55-1.14-10.52,6.27-22.37,16.12-10.65,8.86-19.06,16.46-24.72,21.71,1.11-18.49,3-33.42,4.63-44.1,1.78-11.65,3.73-21.4-2.15-25.34-5.3-3.55-14-.43-14.6-.22-10.93,4.06-11.94,14.31-25.19,44.91-4.11,9.5-9.63,21.48-20.89,34.23-4.81,5.44-10.48,11.76-13.87,10.6-6.71-2.27-1.52-32.56.47-44.22,2.85-16.65,5.88-24.68.32-30-4.5-4.33-13-6-18.5-3.43-4.71,2.24-5.85,7-8.22,15.71-1.87,6.82-4.72,16.93-8.68,29.59-26,49.23-36,52.12-39.87,51.2-10.93-2.65-7.25-45-6.85-49.64A171.33,171.33,0,0,1,1135,987.54c29.22-6.1,69.57-16.31,69.85-26.87,0-.59.08-2.93-1.61-4.13-4.15-2.94-13.91,4.51-29,10.92-6.27,2.66-28.87,12.25-34.44,6.78-2.14-2.1-.18-4.88,3.51-19.8,4.68-18.91,3.7-23.23,1.08-26.11-2.28-2.5-6.55-4.74-10.65-4.15-2.45.35-8.2,2.12-17.22,27.53a226.52,226.52,0,0,0-8.3,29.61c-11-.88-36.21-1.54-49.91,12.17-.79.79-7.51,7.6-5.58,10,2.23,2.81,14.89-1.66,25.67-6.08,6.65-3.39,19.46-9.34,23.45-5.8,1.72,1.53,1.18,4.3.9,5.65-10.4,49.55-23.55,69.45-23.55,69.45a216.34,216.34,0,0,1-29.9,35.93c-1.46,2.35-2.93,5.17-2,6,2,1.65,13.15-6.05,18-9.79,7.82-6.06,19.12-17.28,26.79-37.77a35.73,35.73,0,0,0,9.09,27.73,42.85,42.85,0,0,0,18.5,11.59,44,44,0,0,0,20.41-4c9.61-4.6,14.42-12,19.86-20.59,8.67-13.68,11.69-25.43,13.31-25.09,1.93.4-5,16.59,3.82,25,4.44,4.27,11.64,5.38,15.31,5.94a39.1,39.1,0,0,0,15.31-.56c3.94-1,12-4.07,23.17-21.17,11.49-17.54,13.53-30.39,15.74-30s1.42,14.75-.32,25C1245,1062.75,1243.79,1069.32,1239.41,1076.5Z" transform="translate(-358.03 -70.11)"/><path class="cls-4" d="M840.86,909c19.3,2.45,34.37-34.15,39.59-46.82,1.49-3.62,2.31-6.25,1.39-7-3-2.29-22,17.51-38.1,35.13-5.56-13.95-13.25-30-19.66-29.1-3.58.54-5.36,6.19-5.84,7.7C813.52,883.92,826.41,907.13,840.86,909Z" transform="translate(-358.03 -70.11)"/><circle class="cls-5" cx="663.47" cy="1828.65" r="64.13"/><circle class="cls-6" cx="663.47" cy="1830.48" r="47.97"/></svg>